<?xml version="1.0" standalone="no"?>
<!DOCTYPE svg PUBLIC "-//W3C//DTD SVG 20010904//EN"
 "http://www.w3.org/TR/2001/REC-SVG-20010904/DTD/svg10.dtd">
<svg version="1.0" xmlns="http://www.w3.org/2000/svg"
 width="1200.000000pt" height="1200.000000pt" viewBox="0 0 1200.000000 1200.000000"
 preserveAspectRatio="xMidYMid meet">
<metadata>
Created by potrace 1.11, written by Peter Selinger 2001-2013
</metadata>
<g transform="translate(0.000000,1200.000000) scale(0.100000,-0.100000)"
fill="#000000" stroke="none">
<path d="M5698 11995 c-1 -1 -55 -6 -118 -10 -63 -3 -128 -8 -145 -10 -16 -2
-57 -7 -90 -10 -89 -10 -173 -20 -235 -30 -14 -2 -56 -9 -95 -15 -185 -29
-511 -104 -715 -164 -95 -28 -374 -121 -405 -135 -11 -5 -74 -30 -140 -56
-336 -134 -719 -334 -1040 -543 -203 -133 -508 -364 -645 -487 -19 -18 -66
-60 -105 -95 -88 -78 -381 -375 -457 -462 -232 -265 -427 -527 -595 -798 -46
-74 -88 -142 -93 -150 -77 -124 -249 -465 -333 -660 -178 -415 -328 -916 -393
-1310 -4 -25 -8 -47 -9 -50 0 -3 -4 -27 -9 -53 -4 -27 -9 -58 -11 -69 -3 -11
-7 -46 -11 -77 -3 -31 -8 -65 -10 -76 -2 -11 -7 -56 -10 -100 -3 -44 -7 -82
-9 -85 -10 -16 -20 -294 -20 -545 0 -289 6 -424 24 -605 11 -103 12 -108 37
-280 9 -63 18 -125 19 -137 2 -12 6 -34 9 -50 3 -15 8 -42 11 -59 7 -46 85
-386 90 -394 2 -3 6 -17 8 -31 9 -47 68 -240 123 -401 101 -296 267 -673 395
-901 29 -51 63 -112 77 -137 89 -164 294 -469 444 -664 208 -269 515 -603 734
-796 53 -47 102 -90 108 -95 6 -6 38 -33 71 -60 33 -28 62 -52 65 -55 3 -3 26
-22 52 -43 l47 -37 102 152 c217 323 452 673 620 921 96 142 179 266 184 275
6 9 37 58 71 107 33 50 168 250 299 445 131 195 320 477 420 625 272 404 810
1206 1067 1590 125 187 231 345 235 350 19 23 174 257 180 271 4 12 -200 14
-1580 14 l-1585 0 0 490 0 490 37 1 c20 0 734 1 1588 1 l1552 1 1 508 0 507
-1587 0 -1588 0 -2 491 -2 491 3669 0 3668 0 0 -490 0 -490 -131 -1 c-73 0
-787 -1 -1587 -2 l-1455 -2 -1 -506 -1 -506 1581 -1 c869 0 1584 -1 1588 -1 3
-1 6 -221 6 -491 l0 -490 -1584 0 c-871 0 -1584 -3 -1584 -6 0 -3 182 -276
404 -607 222 -331 432 -645 466 -697 35 -52 67 -96 72 -98 4 -2 8 -7 8 -11 0
-4 39 -66 87 -137 183 -273 566 -844 797 -1187 133 -196 257 -382 276 -412 19
-29 145 -217 279 -417 135 -200 322 -478 415 -618 94 -140 173 -257 176 -260
3 -3 49 -72 103 -153 l98 -149 22 18 c12 10 27 23 32 29 6 5 28 23 50 40 95
71 303 261 465 424 299 301 526 579 740 901 45 69 91 137 101 152 10 15 19 30
19 34 0 3 8 18 19 32 63 90 241 424 326 612 104 229 232 564 273 710 5 19 26
90 46 157 31 104 67 244 82 318 2 11 6 31 9 45 8 36 14 71 20 105 3 17 8 37
10 45 2 8 7 31 10 50 3 19 8 42 10 50 2 8 6 38 10 65 3 28 10 75 15 105 5 30
12 82 15 115 3 33 8 74 10 90 35 254 41 1037 10 1205 -1 8 -6 49 -10 90 -4 41
-9 82 -10 91 -2 9 -6 40 -10 70 -3 30 -11 80 -16 112 -6 32 -12 72 -14 88 -2
17 -6 42 -9 57 -3 15 -8 41 -11 59 -7 46 -89 394 -114 488 -49 182 -190 582
-263 745 -11 25 -27 61 -35 80 -37 86 -191 392 -245 489 -91 160 -304 499
-328 521 -3 3 -27 36 -54 73 -45 63 -223 296 -235 307 -4 3 -21 23 -40 45
-107 126 -174 198 -341 365 -161 162 -219 216 -364 340 -16 14 -34 30 -40 35
-20 18 -189 150 -271 211 -404 302 -894 573 -1372 760 -190 75 -475 170 -609
203 -21 5 -75 19 -119 30 -118 31 -348 80 -445 95 -19 3 -78 12 -130 20 -109
17 -144 22 -290 36 -58 6 -130 13 -160 16 -59 6 -736 15 -742 9z"/>
<path d="M5949 4903 c-25 -38 -170 -255 -324 -483 -153 -228 -398 -593 -543
-810 -146 -217 -361 -537 -477 -710 -336 -500 -639 -951 -960 -1430 -164 -245
-345 -513 -401 -597 l-103 -152 168 -85 c318 -160 675 -299 1051 -410 92 -26
279 -74 326 -82 16 -3 37 -7 46 -10 10 -3 30 -7 45 -10 16 -3 62 -11 103 -19
127 -25 356 -59 465 -70 33 -3 78 -8 100 -10 258 -27 976 -26 1110 0 11 2 51
6 88 10 37 3 132 15 210 26 78 11 153 22 167 24 113 15 500 106 680 159 139
41 394 127 404 137 6 5 16 9 22 9 47 0 724 313 724 335 0 5 -23 44 -51 85 -28
41 -201 297 -383 569 -182 271 -357 532 -388 579 -32 47 -58 89 -58 93 0 4 -3
9 -7 11 -11 4 -73 97 -73 107 0 5 -4 11 -8 13 -4 2 -62 84 -128 183 -195 291
-641 956 -859 1280 -111 165 -349 521 -530 790 -372 556 -358 534 -366 535 -4
0 -26 -30 -50 -67z"/>
</g>
</svg>
